<svg width="162" height="41" viewBox="0 0 162 41" fill="none" xmlns="http://www.w3.org/2000/svg">
<mask id="mask0_713_5" style="mask-type:luminance" maskUnits="userSpaceOnUse" x="0" y="0" width="36" height="41">
<path d="M35.5 0.524902H0.5V40.5249H35.5V0.524902Z" fill="white"/>
</mask>
<g mask="url(#mask0_713_5)">
<path d="M6.90209 30.89H1.05273V11.2183H6.88082V30.89H6.90209Z" fill="#1E1E1E"/>
<path d="M18.1966 30.8902H12.3047V11.2184H18.1754V14.0771C19.2389 12.1078 21.5148 10.7949 23.8971 10.7949C28.3426 10.7949 31.129 13.5265 31.129 19.1379V30.8902H25.2584V20.4085C25.2584 17.7615 23.812 16.491 21.8339 16.491C19.7706 16.491 18.1966 17.5074 18.1966 20.4932V30.8902Z" fill="#1E1E1E"/>
<path d="M4.00961 7.66085C2.07401 7.66085 0.5 6.09389 0.5 4.14577C0.5 2.21882 2.07401 0.651855 4.00961 0.651855C5.94522 0.651855 7.51923 2.21882 7.51923 4.14577C7.5405 6.09389 5.96649 7.66085 4.00961 7.66085Z" fill="#CE0014"/>
<path d="M15.3038 7.66085C13.3682 7.66085 11.7942 6.09389 11.7942 4.16694C11.7729 2.21882 13.3469 0.651855 15.3038 0.651855C17.2394 0.651855 18.8134 2.21882 18.8134 4.14577C18.8134 6.09389 17.2394 7.66085 15.3038 7.66085Z" fill="#F4A519"/>
<path d="M26.2157 7.66068C24.2801 7.66068 22.7061 6.09371 22.7061 4.16677C22.7061 2.23982 24.2801 0.672852 26.2157 0.672852C28.1513 0.672852 29.7253 2.23982 29.7253 4.16677C29.7466 6.09371 28.1726 7.66068 26.2157 7.66068Z" fill="#00D1A6"/>
</g>
<path d="M51.4593 30.89L46.5993 23.87H46.3113H41.2353V30.89H35.4033V5.68994H46.3113C48.5433 5.68994 50.4753 6.06194 52.1073 6.80594C53.7633 7.54994 55.0353 8.60594 55.9233 9.97394C56.8113 11.342 57.2553 12.962 57.2553 14.834C57.2553 16.706 56.7993 18.326 55.8873 19.694C54.9993 21.038 53.7273 22.07 52.0713 22.79L57.7233 30.89H51.4593ZM51.3513 14.834C51.3513 13.418 50.8953 12.338 49.9833 11.594C49.0713 10.826 47.7393 10.442 45.9873 10.442H41.2353V19.226H45.9873C47.7393 19.226 49.0713 18.842 49.9833 18.074C50.8953 17.306 51.3513 16.226 51.3513 14.834Z" fill="#1E1E1E"/>
<path d="M80.452 21.2779C80.452 21.3499 80.416 21.8539 80.344 22.7899H65.692C65.956 23.9899 66.58 24.9379 67.564 25.6339C68.548 26.3299 69.772 26.6779 71.236 26.6779C72.244 26.6779 73.132 26.5339 73.9 26.2459C74.692 25.9339 75.424 25.4539 76.096 24.8059L79.084 28.0459C77.26 30.1339 74.596 31.1779 71.092 31.1779C68.908 31.1779 66.976 30.7579 65.296 29.9179C63.616 29.0539 62.32 27.8659 61.408 26.3539C60.496 24.8419 60.04 23.1259 60.04 21.2059C60.04 19.3099 60.484 17.6059 61.372 16.0939C62.284 14.5579 63.52 13.3699 65.08 12.5299C66.664 11.6659 68.428 11.2339 70.372 11.2339C72.268 11.2339 73.984 11.6419 75.52 12.4579C77.056 13.2739 78.256 14.4499 79.12 15.9859C80.008 17.4979 80.452 19.2619 80.452 21.2779ZM70.408 15.4819C69.136 15.4819 68.068 15.8419 67.204 16.5619C66.34 17.2819 65.812 18.2659 65.62 19.5139H75.16C74.968 18.2899 74.44 17.3179 73.576 16.5979C72.712 15.8539 71.656 15.4819 70.408 15.4819Z" fill="#1E1E1E"/>
<path d="M95.6384 11.2339C97.4384 11.2339 99.0704 11.6539 100.535 12.4939C102.023 13.3099 103.187 14.4739 104.027 15.9859C104.867 17.4739 105.287 19.2139 105.287 21.2059C105.287 23.1979 104.867 24.9499 104.027 26.4619C103.187 27.9499 102.023 29.1139 100.535 29.9539C99.0704 30.7699 97.4384 31.1779 95.6384 31.1779C93.1664 31.1779 91.2224 30.3979 89.8064 28.8379V37.8739H84.1904V11.5219H89.5544V13.7539C90.9464 12.0739 92.9744 11.2339 95.6384 11.2339ZM94.6664 26.5699C96.1064 26.5699 97.2824 26.0899 98.1944 25.1299C99.1304 24.1459 99.5984 22.8379 99.5984 21.2059C99.5984 19.5739 99.1304 18.2779 98.1944 17.3179C97.2824 16.3339 96.1064 15.8419 94.6664 15.8419C93.2264 15.8419 92.0384 16.3339 91.1024 17.3179C90.1904 18.2779 89.7344 19.5739 89.7344 21.2059C89.7344 22.8379 90.1904 24.1459 91.1024 25.1299C92.0384 26.0899 93.2264 26.5699 94.6664 26.5699Z" fill="#1E1E1E"/>
<path d="M118.262 31.1779C116.222 31.1779 114.386 30.7579 112.754 29.9179C111.146 29.0539 109.886 27.8659 108.974 26.3539C108.062 24.8419 107.606 23.1259 107.606 21.2059C107.606 19.2859 108.062 17.5699 108.974 16.0579C109.886 14.5459 111.146 13.3699 112.754 12.5299C114.386 11.6659 116.222 11.2339 118.262 11.2339C120.302 11.2339 122.126 11.6659 123.734 12.5299C125.342 13.3699 126.602 14.5459 127.514 16.0579C128.426 17.5699 128.882 19.2859 128.882 21.2059C128.882 23.1259 128.426 24.8419 127.514 26.3539C126.602 27.8659 125.342 29.0539 123.734 29.9179C122.126 30.7579 120.302 31.1779 118.262 31.1779ZM118.262 26.5699C119.702 26.5699 120.878 26.0899 121.79 25.1299C122.726 24.1459 123.194 22.8379 123.194 21.2059C123.194 19.5739 122.726 18.2779 121.79 17.3179C120.878 16.3339 119.702 15.8419 118.262 15.8419C116.822 15.8419 115.634 16.3339 114.698 17.3179C113.762 18.2779 113.294 19.5739 113.294 21.2059C113.294 22.8379 113.762 24.1459 114.698 25.1299C115.634 26.0899 116.822 26.5699 118.262 26.5699Z" fill="#1E1E1E"/>
<path d="M138 14.0779C138.672 13.1419 139.572 12.4339 140.7 11.9539C141.852 11.4739 143.172 11.2339 144.66 11.2339V16.4179C144.036 16.3699 143.616 16.3459 143.4 16.3459C141.792 16.3459 140.532 16.8019 139.62 17.7139C138.708 18.6019 138.252 19.9459 138.252 21.7459V30.8899H132.636V11.5219H138V14.0779Z" fill="#1E1E1E"/>
<path d="M161.159 29.9543C160.607 30.3623 159.923 30.6743 159.107 30.8903C158.315 31.0823 157.475 31.1783 156.587 31.1783C154.283 31.1783 152.495 30.5903 151.223 29.4143C149.975 28.2383 149.351 26.5103 149.351 24.2303V16.2743H146.363V11.9543H149.351V7.23828H154.967V11.9543H159.791V16.2743H154.967V24.1583C154.967 24.9743 155.171 25.6103 155.579 26.0663C156.011 26.4983 156.611 26.7143 157.379 26.7143C158.267 26.7143 159.023 26.4743 159.647 25.9943L161.159 29.9543Z" fill="#1E1E1E"/>
</svg>
