<svg width="1247" height="341" viewBox="0 0 1247 341" fill="none" xmlns="http://www.w3.org/2000/svg">
<g clip-path="url(#clip0_19_88)">
<path fill-rule="evenodd" clip-rule="evenodd" d="M137.5 0H0L137.5 137.5H0L137.5 275H275L137.5 137.5H275L137.5 0Z" fill="#171717"/>
</g>
<path d="M1216.07 166.496V232.96C1216.07 237.589 1217.15 240.979 1219.3 243.128C1221.61 245.112 1225.41 246.104 1230.7 246.104H1246.82V275.368H1225C1195.74 275.368 1181.1 261.149 1181.1 232.712V166.496H1164.74V137.976H1181.1V104H1216.07V137.976H1246.82V166.496H1216.07Z" fill="#171717"/>
<path d="M1112.58 159.312C1117.04 152.037 1122.83 146.333 1129.94 142.2C1137.21 138.067 1145.48 136 1154.74 136V172.456H1145.56C1134.65 172.456 1126.38 175.019 1120.76 180.144C1115.3 185.269 1112.58 194.197 1112.58 206.928V275.376H1077.86V137.984H1112.58V159.312Z" fill="#171717"/>
<path d="M996.184 276.856C982.957 276.856 971.053 273.963 960.472 268.176C949.891 262.224 941.541 253.875 935.424 243.128C929.472 232.381 926.496 219.981 926.496 205.928C926.496 191.875 929.555 179.475 935.672 168.728C941.955 157.981 950.469 149.715 961.216 143.928C971.963 137.976 983.949 135 997.176 135C1010.4 135 1022.39 137.976 1033.14 143.928C1043.88 149.715 1052.31 157.981 1058.43 168.728C1064.71 179.475 1067.86 191.875 1067.86 205.928C1067.86 219.981 1064.63 232.381 1058.18 243.128C1051.9 253.875 1043.3 262.224 1032.39 268.176C1021.65 273.963 1009.58 276.856 996.184 276.856ZM996.184 246.6C1002.47 246.6 1008.34 245.112 1013.79 242.136C1019.41 238.995 1023.88 234.365 1027.18 228.248C1030.49 222.131 1032.14 214.691 1032.14 205.928C1032.14 192.867 1028.67 182.864 1021.73 175.92C1014.95 168.811 1006.6 165.256 996.68 165.256C986.76 165.256 978.411 168.811 971.632 175.92C965.019 182.864 961.712 192.867 961.712 205.928C961.712 218.989 964.936 229.075 971.384 236.184C977.997 243.128 986.264 246.6 996.184 246.6Z" fill="#171717"/>
<path d="M808.368 157.072C812.832 150.789 818.949 145.581 826.72 141.448C834.656 137.149 843.667 135 853.752 135C865.491 135 876.072 137.893 885.496 143.68C895.085 149.467 902.608 157.733 908.064 168.48C913.685 179.061 916.496 191.379 916.496 205.432C916.496 219.485 913.685 231.968 908.064 242.88C902.608 253.627 895.085 261.976 885.496 267.928C876.072 273.88 865.491 276.856 853.752 276.856C843.667 276.856 834.739 274.789 826.968 270.656C819.363 266.523 813.163 261.315 808.368 255.032V340.096H773.648V137.232H808.368V157.072ZM881.032 205.432C881.032 197.165 879.296 190.056 875.824 184.104C872.517 177.987 868.053 173.357 862.432 170.216C856.976 167.075 851.024 165.504 844.576 165.504C838.293 165.504 832.341 167.157 826.72 170.464C821.264 173.605 816.8 178.235 813.328 184.352C810.021 190.469 808.368 197.661 808.368 205.928C808.368 214.195 810.021 221.387 813.328 227.504C816.8 233.621 821.264 238.333 826.72 241.64C832.341 244.781 838.293 246.352 844.576 246.352C851.024 246.352 856.976 244.699 862.432 241.392C868.053 238.085 872.517 233.373 875.824 227.256C879.296 221.139 881.032 213.864 881.032 205.432Z" fill="#171717"/>
<path d="M763.648 202.952C763.648 207.912 763.317 212.376 762.656 216.344H662.216C663.043 226.264 666.515 234.035 672.632 239.656C678.749 245.277 686.272 248.088 695.2 248.088C708.096 248.088 717.272 242.549 722.728 231.472H760.176C756.208 244.699 748.603 255.611 737.36 264.208C726.117 272.64 712.312 276.856 695.944 276.856C682.717 276.856 670.813 273.963 660.232 268.176C649.816 262.224 641.632 253.875 635.68 243.128C629.893 232.381 627 219.981 627 205.928C627 191.709 629.893 179.227 635.68 168.48C641.467 157.733 649.568 149.467 659.984 143.68C670.4 137.893 682.387 135 695.944 135C709.005 135 720.661 137.811 730.912 143.432C741.328 149.053 749.347 157.072 754.968 167.488C760.755 177.739 763.648 189.56 763.648 202.952ZM727.688 193.032C727.523 184.104 724.299 176.995 718.016 171.704C711.733 166.248 704.045 163.52 694.952 163.52C686.355 163.52 679.08 166.165 673.128 171.456C667.341 176.581 663.787 183.773 662.464 193.032H727.688Z" fill="#171717"/>
<path d="M581.28 275.104L543.088 207.648H526.72V275.104H492V102H556.976C570.368 102 581.776 104.397 591.2 109.192C600.624 113.821 607.651 120.187 612.28 128.288C617.075 136.224 619.472 145.152 619.472 155.072C619.472 166.48 616.165 176.813 609.552 186.072C602.939 195.165 593.101 201.448 580.04 204.92L621.456 275.104H581.28ZM526.72 181.608H555.736C565.16 181.608 572.187 179.376 576.816 174.912C581.445 170.283 583.76 163.917 583.76 155.816C583.76 147.88 581.445 141.763 576.816 137.464C572.187 133 565.16 130.768 555.736 130.768H526.72V181.608Z" fill="#171717"/>
<path d="M419.136 135.624C435.504 135.624 448.731 140.832 458.816 151.248C468.901 161.499 473.944 175.883 473.944 194.4V275H439.224V199.112C439.224 188.2 436.496 179.851 431.04 174.064C425.584 168.112 418.144 165.136 408.72 165.136C399.131 165.136 391.525 168.112 385.904 174.064C380.448 179.851 377.72 188.2 377.72 199.112V275H343V137.608H377.72V154.72C382.349 148.768 388.219 144.139 395.328 140.832C402.603 137.36 410.539 135.624 419.136 135.624Z" fill="#171717"/>
<path d="M313.72 121.24C307.603 121.24 302.477 119.339 298.344 115.536C294.376 111.568 292.392 106.691 292.392 100.904C292.392 95.1172 294.376 90.3225 298.344 86.5199C302.477 82.5519 307.603 80.5679 313.72 80.5679C319.837 80.5679 324.88 82.5519 328.848 86.5199C332.981 90.3225 335.048 95.1172 335.048 100.904C335.048 106.691 332.981 111.568 328.848 115.536C324.88 119.339 319.837 121.24 313.72 121.24ZM330.832 137.608V275H296.112V137.608H330.832Z" fill="#171717"/>
<circle cx="314" cy="101" r="22" fill="#4478FF"/>
<defs>
<clipPath id="clip0_19_88">
<rect width="275" height="275" fill="white"/>
</clipPath>
</defs>
</svg>
